<mxfile host="app.diagrams.net" modified="2023-04-28T15:55:15.598Z" agent="Mozilla/5.0 (Windows NT 10.0; Win64; x64; rv:109.0) Gecko/20100101 Firefox/112.0" etag="VIWA87pYEDigSqwvw5zI" version="21.2.3" type="device">
  <diagram name="Page-1" id="1rfseUxClpkkoTdwEQ6H">
    <mxGraphModel dx="989" dy="504" grid="1" gridSize="10" guides="1" tooltips="1" connect="1" arrows="1" fold="1" page="1" pageScale="1" pageWidth="1200" pageHeight="1600" math="0" shadow="0">
      <root>
        <mxCell id="0" />
        <mxCell id="1" parent="0" />
        <mxCell id="x7yo1bF5Ih4Q695Gc91e-23" value="" style="edgeStyle=orthogonalEdgeStyle;rounded=0;orthogonalLoop=1;jettySize=auto;html=1;" parent="1" source="x7yo1bF5Ih4Q695Gc91e-1" target="x7yo1bF5Ih4Q695Gc91e-2" edge="1">
          <mxGeometry relative="1" as="geometry" />
        </mxCell>
        <mxCell id="x7yo1bF5Ih4Q695Gc91e-1" value="&lt;div&gt;Start&lt;/div&gt;" style="strokeWidth=2;html=1;shape=mxgraph.flowchart.terminator;whiteSpace=wrap;" parent="1" vertex="1">
          <mxGeometry x="550" y="40" width="100" height="60" as="geometry" />
        </mxCell>
        <mxCell id="x7yo1bF5Ih4Q695Gc91e-24" value="" style="edgeStyle=orthogonalEdgeStyle;rounded=0;orthogonalLoop=1;jettySize=auto;html=1;" parent="1" source="x7yo1bF5Ih4Q695Gc91e-2" target="x7yo1bF5Ih4Q695Gc91e-3" edge="1">
          <mxGeometry relative="1" as="geometry" />
        </mxCell>
        <mxCell id="x7yo1bF5Ih4Q695Gc91e-2" value="&lt;div&gt;input&lt;/div&gt;&lt;div&gt;row&lt;/div&gt;&lt;div&gt;col&lt;br&gt;&lt;/div&gt;" style="shape=parallelogram;html=1;strokeWidth=2;perimeter=parallelogramPerimeter;whiteSpace=wrap;rounded=1;arcSize=12;size=0.23;" parent="1" vertex="1">
          <mxGeometry x="550" y="140" width="100" height="60" as="geometry" />
        </mxCell>
        <mxCell id="x7yo1bF5Ih4Q695Gc91e-25" value="" style="edgeStyle=orthogonalEdgeStyle;rounded=0;orthogonalLoop=1;jettySize=auto;html=1;" parent="1" source="x7yo1bF5Ih4Q695Gc91e-3" target="x7yo1bF5Ih4Q695Gc91e-4" edge="1">
          <mxGeometry relative="1" as="geometry" />
        </mxCell>
        <mxCell id="x7yo1bF5Ih4Q695Gc91e-3" value="i = 0" style="rounded=1;whiteSpace=wrap;html=1;absoluteArcSize=1;arcSize=14;strokeWidth=2;" parent="1" vertex="1">
          <mxGeometry x="550" y="240" width="100" height="60" as="geometry" />
        </mxCell>
        <mxCell id="x7yo1bF5Ih4Q695Gc91e-16" value="" style="edgeStyle=orthogonalEdgeStyle;rounded=0;orthogonalLoop=1;jettySize=auto;html=1;" parent="1" source="x7yo1bF5Ih4Q695Gc91e-4" target="x7yo1bF5Ih4Q695Gc91e-6" edge="1">
          <mxGeometry relative="1" as="geometry" />
        </mxCell>
        <mxCell id="x7yo1bF5Ih4Q695Gc91e-22" style="edgeStyle=orthogonalEdgeStyle;rounded=0;orthogonalLoop=1;jettySize=auto;html=1;exitX=0;exitY=0.5;exitDx=0;exitDy=0;exitPerimeter=0;entryX=0;entryY=0.5;entryDx=0;entryDy=0;entryPerimeter=0;" parent="1" source="x7yo1bF5Ih4Q695Gc91e-4" target="x7yo1bF5Ih4Q695Gc91e-21" edge="1">
          <mxGeometry relative="1" as="geometry">
            <Array as="points">
              <mxPoint x="470" y="390" />
              <mxPoint x="470" y="950" />
            </Array>
          </mxGeometry>
        </mxCell>
        <mxCell id="x7yo1bF5Ih4Q695Gc91e-4" value="i &amp;lt; row" style="strokeWidth=2;html=1;shape=mxgraph.flowchart.decision;whiteSpace=wrap;" parent="1" vertex="1">
          <mxGeometry x="550" y="340" width="100" height="100" as="geometry" />
        </mxCell>
        <mxCell id="x7yo1bF5Ih4Q695Gc91e-17" value="" style="edgeStyle=orthogonalEdgeStyle;rounded=0;orthogonalLoop=1;jettySize=auto;html=1;" parent="1" source="x7yo1bF5Ih4Q695Gc91e-6" target="x7yo1bF5Ih4Q695Gc91e-7" edge="1">
          <mxGeometry relative="1" as="geometry" />
        </mxCell>
        <mxCell id="x7yo1bF5Ih4Q695Gc91e-6" value="j = 0" style="rounded=1;whiteSpace=wrap;html=1;absoluteArcSize=1;arcSize=14;strokeWidth=2;" parent="1" vertex="1">
          <mxGeometry x="550" y="480" width="100" height="60" as="geometry" />
        </mxCell>
        <mxCell id="x7yo1bF5Ih4Q695Gc91e-10" value="" style="edgeStyle=orthogonalEdgeStyle;rounded=0;orthogonalLoop=1;jettySize=auto;html=1;" parent="1" source="x7yo1bF5Ih4Q695Gc91e-7" target="x7yo1bF5Ih4Q695Gc91e-8" edge="1">
          <mxGeometry relative="1" as="geometry" />
        </mxCell>
        <mxCell id="x7yo1bF5Ih4Q695Gc91e-19" style="edgeStyle=orthogonalEdgeStyle;rounded=0;orthogonalLoop=1;jettySize=auto;html=1;exitX=0;exitY=0.5;exitDx=0;exitDy=0;exitPerimeter=0;entryX=0;entryY=0.5;entryDx=0;entryDy=0;" parent="1" source="x7yo1bF5Ih4Q695Gc91e-7" target="x7yo1bF5Ih4Q695Gc91e-18" edge="1">
          <mxGeometry relative="1" as="geometry">
            <Array as="points">
              <mxPoint x="510" y="630" />
              <mxPoint x="510" y="850" />
            </Array>
          </mxGeometry>
        </mxCell>
        <mxCell id="x7yo1bF5Ih4Q695Gc91e-7" value="j &amp;lt; col" style="strokeWidth=2;html=1;shape=mxgraph.flowchart.decision;whiteSpace=wrap;" parent="1" vertex="1">
          <mxGeometry x="550" y="580" width="100" height="100" as="geometry" />
        </mxCell>
        <mxCell id="x7yo1bF5Ih4Q695Gc91e-11" style="edgeStyle=orthogonalEdgeStyle;rounded=0;orthogonalLoop=1;jettySize=auto;html=1;exitX=1;exitY=0.5;exitDx=0;exitDy=0;entryX=0.5;entryY=1;entryDx=0;entryDy=0;" parent="1" source="x7yo1bF5Ih4Q695Gc91e-8" target="x7yo1bF5Ih4Q695Gc91e-9" edge="1">
          <mxGeometry relative="1" as="geometry" />
        </mxCell>
        <mxCell id="x7yo1bF5Ih4Q695Gc91e-8" value="&lt;div&gt;print&lt;/div&gt;&lt;div&gt;&quot;A &quot;&lt;br&gt;&lt;/div&gt;" style="shape=parallelogram;html=1;strokeWidth=2;perimeter=parallelogramPerimeter;whiteSpace=wrap;rounded=1;arcSize=12;size=0.23;" parent="1" vertex="1">
          <mxGeometry x="550" y="720" width="100" height="60" as="geometry" />
        </mxCell>
        <mxCell id="x7yo1bF5Ih4Q695Gc91e-12" style="edgeStyle=orthogonalEdgeStyle;rounded=0;orthogonalLoop=1;jettySize=auto;html=1;exitX=0;exitY=0.5;exitDx=0;exitDy=0;entryX=1;entryY=0.5;entryDx=0;entryDy=0;entryPerimeter=0;" parent="1" source="x7yo1bF5Ih4Q695Gc91e-9" target="x7yo1bF5Ih4Q695Gc91e-7" edge="1">
          <mxGeometry relative="1" as="geometry" />
        </mxCell>
        <mxCell id="x7yo1bF5Ih4Q695Gc91e-9" value="j++" style="rounded=1;whiteSpace=wrap;html=1;absoluteArcSize=1;arcSize=14;strokeWidth=2;" parent="1" vertex="1">
          <mxGeometry x="690" y="600" width="100" height="60" as="geometry" />
        </mxCell>
        <mxCell id="x7yo1bF5Ih4Q695Gc91e-15" style="edgeStyle=orthogonalEdgeStyle;rounded=0;orthogonalLoop=1;jettySize=auto;html=1;exitX=0;exitY=0.5;exitDx=0;exitDy=0;entryX=1;entryY=0.5;entryDx=0;entryDy=0;entryPerimeter=0;" parent="1" source="x7yo1bF5Ih4Q695Gc91e-13" target="x7yo1bF5Ih4Q695Gc91e-4" edge="1">
          <mxGeometry relative="1" as="geometry" />
        </mxCell>
        <mxCell id="x7yo1bF5Ih4Q695Gc91e-13" value="i++" style="rounded=1;whiteSpace=wrap;html=1;absoluteArcSize=1;arcSize=14;strokeWidth=2;" parent="1" vertex="1">
          <mxGeometry x="770" y="360" width="100" height="60" as="geometry" />
        </mxCell>
        <mxCell id="x7yo1bF5Ih4Q695Gc91e-20" style="edgeStyle=orthogonalEdgeStyle;rounded=0;orthogonalLoop=1;jettySize=auto;html=1;exitX=1;exitY=0.5;exitDx=0;exitDy=0;entryX=0.5;entryY=1;entryDx=0;entryDy=0;" parent="1" source="x7yo1bF5Ih4Q695Gc91e-18" target="x7yo1bF5Ih4Q695Gc91e-13" edge="1">
          <mxGeometry relative="1" as="geometry" />
        </mxCell>
        <mxCell id="x7yo1bF5Ih4Q695Gc91e-18" value="&lt;div&gt;print&lt;/div&gt;&lt;div&gt;&quot;\n&quot;&lt;br&gt;&lt;/div&gt;" style="shape=parallelogram;html=1;strokeWidth=2;perimeter=parallelogramPerimeter;whiteSpace=wrap;rounded=1;arcSize=12;size=0.23;" parent="1" vertex="1">
          <mxGeometry x="550" y="820" width="100" height="60" as="geometry" />
        </mxCell>
        <mxCell id="x7yo1bF5Ih4Q695Gc91e-21" value="&lt;div&gt;End&lt;/div&gt;" style="strokeWidth=2;html=1;shape=mxgraph.flowchart.terminator;whiteSpace=wrap;" parent="1" vertex="1">
          <mxGeometry x="550" y="920" width="100" height="60" as="geometry" />
        </mxCell>
        <mxCell id="ydxA9aTqmwlKiamROhp1-1" value="&lt;div&gt;True&lt;/div&gt;" style="text;html=1;strokeColor=none;fillColor=none;align=center;verticalAlign=middle;whiteSpace=wrap;rounded=0;" vertex="1" parent="1">
          <mxGeometry x="600" y="440" width="60" height="30" as="geometry" />
        </mxCell>
        <mxCell id="ydxA9aTqmwlKiamROhp1-2" value="&lt;div&gt;True&lt;/div&gt;" style="text;html=1;strokeColor=none;fillColor=none;align=center;verticalAlign=middle;whiteSpace=wrap;rounded=0;" vertex="1" parent="1">
          <mxGeometry x="600" y="680" width="60" height="30" as="geometry" />
        </mxCell>
        <mxCell id="ydxA9aTqmwlKiamROhp1-3" value="False" style="text;html=1;strokeColor=none;fillColor=none;align=center;verticalAlign=middle;whiteSpace=wrap;rounded=0;" vertex="1" parent="1">
          <mxGeometry x="500" y="600" width="60" height="30" as="geometry" />
        </mxCell>
        <mxCell id="ydxA9aTqmwlKiamROhp1-4" value="False" style="text;html=1;strokeColor=none;fillColor=none;align=center;verticalAlign=middle;whiteSpace=wrap;rounded=0;" vertex="1" parent="1">
          <mxGeometry x="500" y="360" width="60" height="30" as="geometry" />
        </mxCell>
      </root>
    </mxGraphModel>
  </diagram>
</mxfile>
